<svg xmlns="http://www.w3.org/2000/svg" viewBox="0 0 64 64" role="img" aria-label="S favicon">
  <rect width="64" height="64" rx="14" fill="#0F1418"/>
  <path
    d="M45.5 18.5C41.8 15.4 37.5 14 31.8 14C23.8 14 18.5 17.9 18.5 23.8C18.5 29.6 22.8 32.1 31.4 33.4C37.4 34.3 39.5 35.4 39.5 38.1C39.5 41.1 36.6 42.9 31.8 42.9C26.5 42.9 22.8 41.3 19.2 38.2L15.2 43.4C19.5 47.5 25.1 50 31.9 50C40.8 50 46.6 45.8 46.6 37.9C46.6 31.7 42.8 28.9 33.1 27.4C27.2 26.5 25.6 25.5 25.6 23.3C25.6 21.1 27.9 19.8 31.8 19.8C35.9 19.8 39.2 21 42.1 23.6L45.5 18.5Z"
    fill="#F0F2F5"/>
  <path
    d="M45.5 18.5C41.8 15.4 37.5 14 31.8 14C23.8 14 18.5 17.9 18.5 23.8C18.5 29.6 22.8 32.1 31.4 33.4C37.4 34.3 39.5 35.4 39.5 38.1C39.5 41.1 36.6 42.9 31.8 42.9C26.5 42.9 22.8 41.3 19.2 38.2"
    fill="none"
    stroke="#8B5CF6"
    stroke-width="2"
    stroke-linecap="round"
    opacity="0.95"/>
</svg>
